<svg xmlns="http://www.w3.org/2000/svg" xmlns:xlink="http://www.w3.org/1999/xlink" width="116" height="27"><defs><path d="M14.133 0l88.355.006a13.51 13.51 0 0 1 8.462 2.96c3.124 2.48 5.073 6.405 5.048 10.407.067 3.297-1.18 6.59-3.373 9.047-2.514 2.885-6.302 4.554-10.12 4.57l-85.6.003c-2.405-.017-4.866.16-7.2-.563-4.37-1.246-7.974-4.852-9.19-9.236-.94-3.16-.596-6.633.84-9.593C3.207 3.75 6.987.906 11.2.2c.967-.164 1.954-.2 2.932-.2z" id="A"/></defs><g fill="none" fill-rule="evenodd"><mask id="B" fill="#fff"><use xlink:href="#A"/></mask><use fill="#43b02a" xlink:href="#A"/><g mask="url(#B)" fill-rule="nonzero"><path d="M100.115 6.393c3.43-1 7.36.873 8.788 4.134 1.042 2.21.882 4.92-.404 7-1.38 2.33-4.105 3.805-6.817 3.612-3.515-.087-6.66-3.008-7.072-6.488-.57-3.623 1.948-7.38 5.506-8.256z" fill="#ff671f"/><path d="M13.666 5.125c3.288-.573 6.835 1.038 8.588 3.877.848 1.383-.392 3.45-2.032 3.215-.923.12-1.573-.607-2.068-1.275-1.206-1.498-3.497-1.887-5.15-.92-1.67.896-2.615 3.087-1.926 4.888.52 1.745 2.332 3.037 4.158 2.856 1.473.064 2.6-1 3.52-2.018 1.223-1.183 3.458-.175 3.563 1.47.17 1.453-1.123 2.475-2.115 3.3-3.25 2.555-8.302 2.224-11.2-.72-2.966-2.78-3.46-7.727-1.087-11.034 1.312-1.935 3.447-3.27 5.75-3.646zm16.557.042c4.4-.916 9.128 2.294 9.934 6.725 1.126 4.58-2.315 9.567-6.95 10.25-4.33.866-8.936-2.2-9.853-6.508-1.26-4.62 2.168-9.748 6.87-10.466zm.828 4.398c-2.037.298-3.636 2.288-3.452 4.348.083 2.107 2.023 3.992 4.152 3.866 2.343.117 4.378-2.177 4.108-4.487-.136-2.32-2.53-4.192-4.808-3.727zM41.724 7.2C41.65 5.493 43.9 4.36 45.2 5.46l5.298 5.244 5.075-5.058c.625-.62 1.65-.832 2.45-.43.848.38 1.387 1.33 1.342 2.252l-.008 12.584c.017 1.297-1.254 2.424-2.543 2.205-1.076-.117-1.95-1.116-1.932-2.2v-7.393l-2.877 2.842c-.74.718-1.96.816-2.78.173-1.106-.907-2.007-2.038-3.07-2.998l-.025 7.48c.006 1.3-1.36 2.363-2.615 2.076-1.02-.175-1.887-1.155-1.796-2.213l.006-12.832zm19.476.08c-.042-1.255 1.117-2.333 2.354-2.257l8.93.006c.817 0 1.612.5 1.976 1.24.714 1.266-.225 3.137-1.715 3.173l-7.085.025V12.2l5.98.003c1.404-.053 2.663 1.4 2.26 2.784-.222 1.03-1.237 1.765-2.276 1.72-1.987.014-3.975-.006-5.962.003l-.02 3.53c-.072 1.358-1.587 2.374-2.87 1.926-.636-.148-1.037-.693-1.423-1.172-.264-1.24-.133-2.514-.158-3.77l.01-9.954zm14.443.204c-.228-1.47 1.34-2.828 2.754-2.4.978.284 1.54 1.197 2.26 1.845l3.22 3.184 4.603-4.568c.867-.8 2.307-.674 3.068.2.8.83.77 2.255-.056 3.05l-5.4 5.428-.008 5.804c.05 1.038-.78 1.996-1.784 2.177-1.306.306-2.732-.843-2.638-2.2l-.006-5.78-4.408-4.45c-.65-.67-1.57-1.278-1.604-2.3z" fill="#fff"/></g></g></svg>